<svg width="121" height="81" viewBox="0 0 121 81" fill="none" xmlns="http://www.w3.org/2000/svg">
<path d="M103.081 39.8102C101.165 39.8102 99.4785 39.8102 97.6582 39.8102C97.6582 44.4662 97.6582 48.916 97.6582 53.6095C103.222 53.6095 108.825 53.6095 114.57 53.6095C114.57 55.2653 114.57 56.6836 114.57 58.2915C109.005 58.2915 103.46 58.2915 97.7186 58.2915C97.7186 63.664 97.7186 68.8552 97.7186 74.2381C103.931 74.2381 110.097 74.2381 116.453 74.2381C116.453 75.8335 116.453 77.2487 116.453 78.8431C108.404 78.8431 100.322 78.8431 92.0723 78.8431C92.0723 64.3867 92.0723 49.9022 92.0723 35.2615C99.8076 35.2615 107.583 35.2615 115.517 35.2615C115.517 36.6653 115.517 38.0847 115.517 39.8102C111.459 39.8102 107.385 39.8102 103.081 39.8102Z" fill="#F2A803"/>
<path d="M43.4498 72.4167C47.708 74.5682 51.9547 75.7221 56.5826 74.6286C59.7297 73.8851 61.9082 72.0762 62.4851 68.8354C63.0714 65.5457 61.902 62.7642 58.9757 61.1376C56.088 59.5318 52.9357 58.4102 49.9803 56.9169C43.8799 53.8344 41.3941 48.8619 43.0593 43.128C44.235 39.0823 47.1009 36.5778 51.0154 35.3854C56.2192 33.8004 61.3448 34.2045 66.5371 36.4986C66.0435 38.0399 65.6061 39.403 65.0886 41.0172C61.7635 39.679 58.4685 38.7407 54.9352 39.2145C51.6371 39.6571 49.1566 41.1536 48.4255 44.5381C47.709 47.8548 49.3232 50.2781 52.1578 51.7975C54.5978 53.1055 57.2002 54.1093 59.713 55.2861C66.5923 58.5071 69.2968 63.0912 68.1565 69.5467C67.1703 75.1285 61.9363 79.219 55.0424 79.6637C50.4166 79.9615 45.9595 79.27 41.6201 76.8603C42.1877 75.3305 42.7365 73.8445 43.4498 72.4167Z" fill="#F2A804"/>
<path d="M81.8129 37.9305C81.8129 51.6787 81.8129 65.2 81.8129 78.8722C79.8843 78.8722 78.1504 78.8722 76.2988 78.8722C76.2988 64.3335 76.2988 49.9042 76.2988 35.2896C78.0327 35.2896 79.7583 35.2896 81.8129 35.2896C81.8129 36.0737 81.8129 36.8881 81.8129 37.9305Z" fill="#F2A907"/>
<path d="M110 4.24669L106.693 -3.05176e-05L105.199 1.16304L106.547 2.89291C106.222 2.86893 105.909 2.85302 105.668 2.85302C97.7508 2.85302 91.3319 9.27191 91.3319 17.1894H93.2245C93.2245 10.3172 98.7961 4.7457 105.668 4.7457C105.826 4.7457 106.029 4.75479 106.249 4.76924L104.589 6.0623L105.752 7.55557L110 4.24669Z" fill="#FF2809"/>
<path d="M116.634 23.2879C119.975 17.2829 117.814 9.70517 111.809 6.36444L112.73 4.71048C119.648 8.55941 122.137 17.2896 118.288 24.2081C118.165 24.4287 117.988 24.7105 117.799 24.9974L119.838 24.9308L119.9 26.8225L114.52 26.9981L114.344 21.616L116.236 21.5543L116.31 23.8166C116.438 23.6193 116.553 23.4337 116.634 23.2879Z" fill="#FF2809"/>
<path d="M97.1499 21.6187L92.0497 19.8905L90.3213 24.9874L92.1137 25.5952L92.8039 23.56C92.8973 23.7542 92.9878 23.9331 93.0683 24.0784C96.9105 31.0013 105.638 33.4995 112.561 29.6562L111.642 28.0014C105.633 31.3372 98.0588 29.1696 94.7237 23.1609C94.6573 23.0411 94.5802 22.8878 94.4994 22.719L96.5424 23.4113L97.1499 21.6187Z" fill="#FB2F06"/>
<path d="M89.3668 19.0472C89.3668 19.0472 36.167 24.6217 19.2405 29.6536C12.1852 31.8134 -4.53725 42.4542 1.16429 62.4664C9.10895 90.3451 39.8941 78.5004 39.8941 78.5004L38.2873 73.4529C38.2873 73.4529 24.2391 78.7431 15.8935 73.4883C6.7294 67.7191 5.44539 59.1829 5.98586 51.8412C6.52633 44.4995 11.5989 36.8891 27.4309 32.9048C34.5612 31.1105 89.3668 19.0472 89.3668 19.0472Z" fill="url(#paint0_linear_900_2221)"/>
<defs>
<linearGradient id="paint0_linear_900_2221" x1="46.7459" y1="25.2687" x2="36.4917" y2="76.5394" gradientUnits="userSpaceOnUse">
<stop stop-color="#FA3700"/>
<stop offset="0.17" stop-color="#F94300"/>
<stop offset="0.4809" stop-color="#F76402"/>
<stop offset="0.8949" stop-color="#F39903"/>
<stop offset="1" stop-color="#F2A804"/>
</linearGradient>
</defs>
</svg>
